<?xml version="1.0" encoding="iso-8859-1"?>
<!-- Generator: Adobe Illustrator 19.1.0, SVG Export Plug-In . SVG Version: 6.00 Build 0)  -->
<svg version="1.1" id="Capa_1" xmlns="http://www.w3.org/2000/svg" xmlns:xlink="http://www.w3.org/1999/xlink" x="0px" y="0px"
	 viewBox="0 0 47.5 47.5" style="enable-background:new 0 0 47.5 47.5;" xml:space="preserve">
<g>
	<path d="M47.5,0.334H0v11h3.583v35.833h15.262h9.81h15.262V11.334H47.5V0.334z M35.708,45.167h-3.05
		c0.654-0.853,1.059-1.907,1.059-3.062c0-2.652-0.98-3.468-1.929-4.257c-0.758-0.63-1.542-1.281-2.181-3.296
		c-0.11-0.348-0.402-0.608-0.761-0.679c-0.356-0.071-0.728,0.061-0.961,0.341l-1.707,2.046c-1.219-0.813-1.656-3.521-1.714-4.524
		c-0.026-0.447-0.346-0.823-0.784-0.92c-0.438-0.093-0.886,0.11-1.097,0.506l-2.115,3.963c-0.147-0.186-0.275-0.342-0.389-0.479
		c-0.163-0.198-0.3-0.364-0.426-0.537c-0.207-0.284-0.548-0.443-0.897-0.409c-0.35,0.031-0.658,0.243-0.812,0.56
		c-0.611,1.259-1.339,2.152-2.044,3.016c-1.09,1.337-2.119,2.6-2.119,4.671c0,1.156,0.405,2.209,1.059,3.062h-3.05V30.709
		c0-6.594,5.364-11.958,11.958-11.958c6.594,0,11.958,5.365,11.958,11.958V45.167z M28.555,45.167
		c0.146-0.332,0.237-0.688,0.237-1.062c0-0.553-0.447-1-1-1s-1,0.447-1,1c0,0.566-0.752,1.062-1.609,1.062h-6.338
		c-1.688,0-3.062-1.374-3.062-3.062c0-1.359,0.664-2.174,1.669-3.407c0.491-0.603,1.025-1.258,1.538-2.06
		c0.217,0.276,0.473,0.618,0.783,1.057l0.969,1.633c0.187,0.315,0.52,0.49,0.861,0.49c0.173,0,0.349-0.045,0.509-0.14
		c0.475-0.282,0.631-0.896,0.35-1.37l-0.706-1.19l1.249-2.339c0.359,1.143,0.961,2.334,1.945,3.052l-0.913,1.213
		c-0.332,0.441-0.243,1.068,0.198,1.4c0.18,0.136,0.391,0.201,0.6,0.201c0.304,0,0.604-0.138,0.8-0.398l1.639-2.179l1.079-1.292
		c0.711,1.406,1.522,2.081,2.156,2.608c0.805,0.669,1.208,1.004,1.208,2.719c0,1.688-1.374,3.062-3.062,3.062H28.555z
		 M41.917,45.167h-4.208V30.709c0-7.697-6.262-13.958-13.958-13.958c-7.696,0-13.958,6.262-13.958,13.958v14.458H5.583v-30h29.383
		c0.553,0,1-0.448,1-1s-0.447-1-1-1H5.583v-1.833h36.333V45.167z M45.5,9.334H2v-7h43.5V9.334z"/>
</g>
<g>
</g>
<g>
</g>
<g>
</g>
<g>
</g>
<g>
</g>
<g>
</g>
<g>
</g>
<g>
</g>
<g>
</g>
<g>
</g>
<g>
</g>
<g>
</g>
<g>
</g>
<g>
</g>
<g>
</g>
</svg>
