<?xml version="1.0" encoding="iso-8859-1"?>
<!-- Generator: Adobe Illustrator 19.0.0, SVG Export Plug-In . SVG Version: 6.00 Build 0)  -->
<svg version="1.1" id="Capa_1" xmlns="http://www.w3.org/2000/svg" xmlns:xlink="http://www.w3.org/1999/xlink" x="0px" y="0px"
	 viewBox="0 0 512 512" style="enable-background:new 0 0 512 512;" xml:space="preserve">
<g>
	<g>
		<g>
			<path d="M503.467,8.533H384H256H128H8.533C3.823,8.533,0,12.356,0,17.067v119.467V256v119.467v119.467
				c0,4.71,3.823,8.533,8.533,8.533H128h128h128h119.467c4.719,0,8.533-3.823,8.533-8.533V375.467V256V136.533V17.067
				C512,12.356,508.186,8.533,503.467,8.533z M494.933,247.467h-17.067V179.2c0-4.71-3.814-8.533-8.533-8.533h-25.6h-25.6
				c-4.719,0-8.533,3.823-8.533,8.533v68.267h-17.067v-102.4h102.4V247.467z M426.667,247.467v-59.733h8.533v59.733H426.667z
				 M452.267,187.733h8.533v59.733h-8.533V187.733z M392.533,264.533h25.6h25.6h25.6h25.6v102.4h-102.4V264.533z M494.933,128
				h-102.4V25.6h102.4V128z M51.2,332.8h34.133v8.533H51.2V332.8z M85.333,315.733H51.2V307.2h34.133V315.733z M51.2,358.4h34.133
				v8.533H51.2V358.4z M102.4,349.867v-25.6v-25.6c0-4.71-3.823-8.533-8.533-8.533h-51.2c-4.71,0-8.533,3.823-8.533,8.533v25.6v25.6
				v17.067H17.067v-102.4h102.4v102.4H102.4V349.867z M59.733,110.933H76.8V128H59.733V110.933z M51.2,145.067h34.133h34.133v102.4
				h-102.4v-102.4H51.2z M17.067,25.6h102.4V128h-25.6v-17.067c4.71,0,8.533-3.823,8.533-8.533c0-4.71-3.823-8.533-8.533-8.533
				h-8.533H51.2h-8.533c-4.71,0-8.533,3.823-8.533,8.533c0,4.71,3.823,8.533,8.533,8.533V128h-25.6V25.6z M17.067,384h25.6h51.2
				h25.6v102.4h-102.4V384z M136.533,375.467V256V136.533V25.6h110.933v460.8H136.533V375.467z M264.533,25.6h110.933v110.933V256
				v119.467V486.4H264.533V25.6z M494.933,486.4h-17.067v-68.267c0-4.71-3.814-8.533-8.533-8.533s-8.533,3.823-8.533,8.533V486.4
				h-8.533v-68.267c0-4.71-3.814-8.533-8.533-8.533c-4.719,0-8.533,3.823-8.533,8.533V486.4h-8.533v-68.267
				c0-4.71-3.814-8.533-8.533-8.533s-8.533,3.823-8.533,8.533V486.4h-17.067V384h102.4V486.4z"/>
			<path d="M315.733,247.467h-25.6c-4.71,0-8.533,3.823-8.533,8.533v25.6c0,4.71,3.823,8.533,8.533,8.533s8.533-3.823,8.533-8.533
				v-17.067h17.067c4.71,0,8.533-3.823,8.533-8.533C324.267,251.29,320.444,247.467,315.733,247.467z"/>
			<path d="M221.867,247.467h-25.6c-4.71,0-8.533,3.823-8.533,8.533c0,4.71,3.823,8.533,8.533,8.533h17.067V281.6
				c0,4.71,3.823,8.533,8.533,8.533c4.71,0,8.533-3.823,8.533-8.533V256C230.4,251.29,226.577,247.467,221.867,247.467z"/>
		</g>
	</g>
</g>
<g>
</g>
<g>
</g>
<g>
</g>
<g>
</g>
<g>
</g>
<g>
</g>
<g>
</g>
<g>
</g>
<g>
</g>
<g>
</g>
<g>
</g>
<g>
</g>
<g>
</g>
<g>
</g>
<g>
</g>
</svg>
